<svg width="54" height="55" viewBox="0 0 54 55" fill="none" xmlns="http://www.w3.org/2000/svg">
<g clip-path="url(#clip0_407_356)">
<path d="M53.4627 27.082C53.4627 41.697 41.6149 53.5447 27 53.5447C12.3851 53.5447 0.537297 41.697 0.537297 27.082C0.537297 12.4671 12.3851 0.619328 27 0.619328C41.6149 0.619328 53.4627 12.4671 53.4627 27.082Z" stroke="white" stroke-width="1.07459"/>
<path d="M35.5928 21.5015C34.9702 21.1387 34.1618 21.1387 33.4767 21.5015L28.6184 24.2926L25.3193 26.1117L20.461 28.9012C19.8383 29.2657 19.03 29.2657 18.3449 28.9012L14.4839 26.7175C13.8612 26.3547 13.4258 25.6882 13.4258 24.9592V20.6527C13.4258 19.9253 13.7988 19.2588 14.4839 18.8943L18.2808 16.7714C18.9052 16.4069 19.7152 16.4069 20.4003 16.7714L24.1972 18.8943C24.8215 19.2588 25.2569 19.9253 25.2569 20.6527V23.4438L28.556 21.5622V18.7728C28.5596 18.4105 28.4626 18.0543 28.2758 17.7438C28.089 17.4334 27.8197 17.1809 27.4979 17.0144L20.461 13.0117C19.8383 12.6472 19.03 12.6472 18.3449 13.0117L11.1832 17.0144C10.8613 17.1809 10.592 17.4334 10.4052 17.7438C10.2184 18.0543 10.1215 18.4105 10.1251 18.7728V26.839C10.1251 27.568 10.498 28.2346 11.1832 28.5991L18.3449 32.6018C18.9676 32.9647 19.7776 32.9647 20.461 32.6018L25.3193 29.8715L28.6184 27.9916L33.4767 25.2629C34.0994 24.8984 34.9077 24.8984 35.5928 25.2629L39.3914 27.3858C40.0158 27.7486 40.4495 28.4152 40.4495 29.1442V33.4507C40.4495 34.178 40.0782 34.8445 39.3914 35.209L35.5945 37.3927C34.9702 37.7572 34.1602 37.7572 33.4767 37.3927L29.6782 35.2698C29.0538 34.9053 28.6184 34.2387 28.6184 33.5114V30.7203L25.3193 32.6018V35.3913C25.3193 36.1186 25.6923 36.7868 26.3774 37.1497L33.5392 41.1524C34.1618 41.5169 34.9702 41.5169 35.6553 41.1524L42.817 37.1497C43.4397 36.7868 43.8751 36.1203 43.8751 35.3913V27.325C43.8787 26.9627 43.7818 26.6065 43.595 26.2961C43.4082 25.9856 43.1388 25.7331 42.817 25.5667L35.5945 21.5015H35.5928Z" fill="white"/>
</g>
<defs>
<clipPath id="clip0_407_356">
<rect width="54" height="54" fill="white" transform="translate(0 0.0820312)"/>
</clipPath>
</defs>
</svg>
