<svg width="32" height="31" viewBox="0 0 32 31" fill="none" xmlns="http://www.w3.org/2000/svg">
<path d="M11.8726 23.2637V19.9132H12.5148L13.9713 22.1469V19.9132H14.6134V23.2637H13.9713L12.5148 21.0301V23.2637H11.8726ZM15.2627 23.2637V19.9132H17.3102V20.5461H15.8955V21.272H17.0309V21.9049H15.8955V23.2637H15.2627ZM19.1681 23.3335C18.8331 23.3335 18.5438 23.2606 18.3003 23.1148C18.0583 22.969 17.8714 22.765 17.7395 22.5028C17.6092 22.2407 17.5441 21.9359 17.5441 21.5885C17.5441 21.241 17.6092 20.9362 17.7395 20.6741C17.8714 20.4119 18.0583 20.208 18.3003 20.0621C18.5438 19.9163 18.8331 19.8434 19.1681 19.8434C19.5528 19.8434 19.8754 19.9388 20.136 20.1296C20.3982 20.3204 20.5827 20.5787 20.6898 20.9044L20.0523 21.0812C19.9902 20.878 19.8855 20.7206 19.7382 20.6089C19.5908 20.4957 19.4008 20.4391 19.1681 20.4391C18.9556 20.4391 18.778 20.4864 18.6353 20.581C18.4942 20.6756 18.3879 20.809 18.3166 20.9812C18.2452 21.1534 18.2095 21.3558 18.2095 21.5885C18.2095 21.8211 18.2452 22.0235 18.3166 22.1957C18.3879 22.3679 18.4942 22.5013 18.6353 22.5959C18.778 22.6905 18.9556 22.7378 19.1681 22.7378C19.4008 22.7378 19.5908 22.6812 19.7382 22.568C19.8855 22.4548 19.9902 22.2973 20.0523 22.0957L20.6898 22.2725C20.5827 22.5982 20.3982 22.8565 20.136 23.0473C19.8754 23.2381 19.5528 23.3335 19.1681 23.3335Z" fill="black"/>
<rect x="9.18714" y="12.8668" width="13.9716" height="17.162" stroke="black" stroke-width="0.550064"/>
<rect x="10.5151" y="14.1733" width="11.3141" height="14.5576" stroke="black" stroke-width="0.495058"/>
<rect x="23.0234" y="12.7832" width="0.440238" height="1.78358" transform="rotate(48.1603 23.0234 12.7832)" fill="black"/>
<rect width="0.440238" height="1.78358" transform="matrix(-0.688457 0.725278 0.725278 0.688457 9.30078 12.7461)" fill="black"/>
<rect width="0.440238" height="1.78358" transform="matrix(-0.710446 0.703752 0.703752 0.710446 22.0059 28.5703)" fill="black"/>
<rect x="10.334" y="28.5703" width="0.440238" height="1.78358" transform="rotate(44.7288 10.334 28.5703)" fill="black"/>
<path fill-rule="evenodd" clip-rule="evenodd" d="M16.856 10.9708C16.7856 11.1279 16.6625 11.2564 16.5092 11.3336L17.472 12.6183H14.8744L15.8372 11.3335C15.6839 11.2563 15.5609 11.1279 15.4905 10.9707L14.2558 12.6183L13.8848 13.1134H14.5034H17.843H18.4616L18.0906 12.6183L16.856 10.9708Z" fill="black"/>
<circle cx="16.1716" cy="10.6657" r="0.555221" stroke="black" stroke-width="0.385045"/>
<path d="M26.1485 20.7292C26.5303 20.9168 26.9944 20.7603 27.157 20.3671C27.828 18.7443 28.1324 16.9897 28.0442 15.2294C27.9431 13.2122 27.3298 11.254 26.2621 9.53958C25.1944 7.82512 23.7075 6.41094 21.9417 5.43045C20.1759 4.44995 18.1895 3.93547 16.1697 3.93555C14.15 3.93562 12.1636 4.45024 10.3979 5.43087C8.63215 6.41149 7.14538 7.82578 6.0778 9.54032C5.01022 11.2548 4.39704 13.2131 4.29611 15.2303C4.20803 16.9906 4.51254 18.7451 5.18366 20.3679C5.34624 20.7611 5.81039 20.9176 6.19218 20.7299C6.57396 20.5422 6.72841 20.0814 6.56963 19.6867C6.0118 18.3001 5.7598 16.8061 5.8348 15.3073C5.92265 13.5515 6.45638 11.847 7.38561 10.3546C8.31485 8.86228 9.60896 7.63126 11.1459 6.77771C12.6828 5.92416 14.4118 5.47623 16.1698 5.47616C17.9278 5.4761 19.6568 5.92391 21.1938 6.77734C22.7308 7.63078 24.025 8.86171 24.9543 10.354C25.8837 11.8463 26.4175 13.5507 26.5055 15.3065C26.5806 16.8053 26.3287 18.2994 25.771 19.686C25.6122 20.0807 25.7667 20.5415 26.1485 20.7292Z" fill="black"/>
<path d="M22.0911 11.2074C22.3625 11.0183 22.4309 10.6433 22.2218 10.3871C21.5504 9.56434 20.7184 8.88389 19.7745 8.38849C18.6535 7.80012 17.4073 7.49006 16.1413 7.48445C14.8752 7.47885 13.6264 7.77787 12.5001 8.35629C11.5519 8.84332 10.7139 9.51638 10.0353 10.3331C9.82388 10.5875 9.88897 10.9631 10.1587 11.1546C10.4284 11.3461 10.8003 11.2807 11.0151 11.0292C11.5802 10.3676 12.27 9.82101 13.0474 9.42179C14.0027 8.93115 15.062 8.6775 16.1359 8.68225C17.2099 8.68701 18.2669 8.95002 19.2179 9.4491C19.9916 9.85519 20.6767 10.4079 21.2358 11.0744C21.4484 11.3278 21.8197 11.3965 22.0911 11.2074Z" fill="black"/>
<path fill-rule="evenodd" clip-rule="evenodd" d="M30.9642 21.2774C29.7961 24.4458 27.6415 27.1554 24.8177 29.0074V26.875C26.8644 25.2737 28.4327 23.13 29.337 20.6774C30.3767 17.8574 30.4834 14.778 29.6415 11.8927C28.7996 9.00739 27.0535 6.46866 24.6604 4.65029C22.2672 2.83192 19.3534 1.83002 16.348 1.79209C13.3426 1.75416 10.4045 2.68222 7.9662 4.43962C5.5279 6.19701 3.71831 8.69087 2.80386 11.554C1.88941 14.4171 1.91843 17.4982 2.88665 20.3436C3.72075 22.7949 5.21392 24.9596 7.1914 26.6063V28.783C4.41668 26.8605 2.33222 24.0981 1.24477 20.9023C0.15688 17.7052 0.124272 14.2433 1.15174 11.0263C2.17922 7.80934 4.21247 5.00725 6.95213 3.03265C9.69179 1.05804 12.9931 0.0152826 16.3699 0.0578966C19.7467 0.100511 23.0207 1.22625 25.7096 3.26936C28.3986 5.31246 30.3605 8.16497 31.3064 11.4069C32.2524 14.6488 32.1324 18.1088 30.9642 21.2774Z" fill="black"/>
</svg>
